<?xml version="1.0" standalone="no"?>
<!DOCTYPE svg PUBLIC "-//W3C//DTD SVG 20010904//EN"
 "http://www.w3.org/TR/2001/REC-SVG-20010904/DTD/svg10.dtd">
<svg version="1.0" xmlns="http://www.w3.org/2000/svg"
 width="1080.000000pt" height="1920.000000pt" viewBox="0 0 1080.000000 1920.000000"
 preserveAspectRatio="xMidYMid meet">

<g transform="translate(0.000000,1920.000000) scale(0.100000,-0.100000)"
fill="#000000" stroke="none">
<path d="M0 9600 l0 -9600 5400 0 5400 0 0 9600 0 9600 -5400 0 -5400 0 0
-9600z m9675 6408 c-4 -40 -9 -75 -12 -78 -2 -2 -51 -7 -108 -10 -57 -3 -106
-8 -109 -11 -6 -6 -26 -403 -26 -516 l0 -73 74 0 c40 0 88 -3 105 -6 l31 -6 0
-71 0 -70 -197 6 c-108 4 -258 7 -335 7 l-138 0 0 70 0 70 105 0 105 0 0 309
0 310 -105 -6 -105 -6 0 71 0 72 183 3 c100 1 262 3 361 5 l178 2 -7 -72z
m-7445 -23 l0 -75 -70 0 c-38 0 -70 -1 -70 -2 0 -2 53 -129 118 -283 l118
-280 77 -3 77 -3 0 -254 c0 -224 -2 -255 -16 -255 -8 0 -46 5 -85 11 -52 9
-69 16 -69 28 0 9 -14 80 -31 157 l-32 141 -75 7 c-166 14 -721 -6 -733 -26
-4 -6 -21 -69 -39 -142 -18 -72 -33 -132 -35 -134 -1 -1 -32 7 -68 18 l-67 21
0 249 0 249 102 3 101 3 92 245 92 245 -41 3 c-23 1 -56 5 -73 7 l-33 6 0 64
0 64 138 4 c75 1 246 4 380 5 l242 2 0 -75z m1187 46 c104 -26 197 -68 279
-126 229 -164 233 -423 10 -590 -201 -150 -518 -201 -800 -129 -104 26 -238
98 -310 165 -91 84 -121 148 -121 254 0 68 4 89 28 138 72 145 280 271 507
306 98 15 310 5 407 -18z m1768 -43 c-3 -40 -9 -76 -11 -80 -3 -5 -33 -8 -67
-8 -124 0 -125 -1 -285 -147 -81 -74 -145 -137 -142 -141 3 -4 78 -73 168
-154 l162 -146 75 5 75 6 0 -87 0 -86 -267 2 -268 3 -8 63 c-5 35 -6 66 -3 69
3 4 31 8 61 11 30 2 55 8 55 12 0 12 -190 172 -200 168 -6 -2 -53 -41 -105
-88 -87 -79 -92 -85 -67 -88 103 -9 112 -13 108 -35 -3 -12 -8 -44 -11 -71
l-7 -48 -261 7 c-176 5 -264 11 -269 19 -4 6 -8 37 -8 69 l0 57 75 0 75 0 160
152 c88 84 160 156 160 160 0 3 -67 65 -149 137 l-149 130 -98 3 c-111 3 -104
-3 -119 107 l-7 51 316 0 316 0 0 -71 0 -71 -72 6 -73 7 36 -33 c21 -18 62
-55 93 -82 l57 -49 82 79 c45 43 83 81 85 84 1 4 -27 4 -63 2 l-65 -4 0 61 c0
33 0 64 0 69 0 6 200 15 499 20 l124 2 -8 -72z m942 43 c104 -26 197 -68 279
-126 229 -164 233 -423 10 -590 -201 -150 -518 -201 -800 -129 -104 26 -238
98 -310 165 -91 84 -121 148 -121 254 0 68 4 89 28 138 72 145 280 271 507
306 98 15 310 5 407 -18z m1443 -46 l0 -75 -70 0 c-38 0 -70 -1 -70 -2 0 -2
53 -129 118 -283 l118 -280 77 -3 c76 -3 77 -3 77 -29 l0 -26 126 6 c69 3 127
7 128 8 2 2 8 170 15 374 6 203 13 370 15 372 1 1 66 0 143 -4 l141 -6 7 -179
7 -178 107 0 c236 0 381 -52 434 -154 56 -108 -6 -223 -157 -292 -112 -51
-162 -56 -578 -61 l-388 -5 0 -169 c0 -146 -2 -169 -16 -169 -8 0 -46 5 -85
11 -52 9 -69 16 -69 28 0 9 -14 80 -31 157 l-32 141 -75 7 c-166 14 -721 -6
-733 -26 -4 -6 -21 -69 -39 -142 -18 -72 -33 -132 -35 -134 -1 -1 -32 7 -68
18 l-67 21 0 249 0 249 102 3 101 3 92 245 92 245 -41 3 c-23 1 -56 5 -73 7
l-33 6 0 64 0 64 138 4 c75 1 246 4 380 5 l242 2 0 -75z m-4135 -1527 c340
-52 654 -305 788 -636 56 -137 71 -224 71 -397 0 -141 -4 -172 -27 -260 -120
-446 -502 -757 -963 -782 -334 -18 -658 127 -870 390 -156 194 -248 485 -229
717 24 272 121 486 304 671 251 253 561 353 926 297z m2285 -169 c376 -34 774
-145 1125 -313 161 -77 455 -250 455 -268 0 -4 -558 -8 -1239 -8 -1225 0
-1240 0 -1294 -20 -77 -29 -140 -88 -179 -168 l-33 -67 -3 -667 -3 -668 -1097
0 c-674 0 -1103 -4 -1112 -10 -13 -8 -16 -156 -20 -1202 l-5 -1193 -46 125
c-128 347 -187 660 -196 1056 -12 507 62 908 253 1379 37 89 144 308 159 324
2 2 27 -17 55 -41 110 -96 324 -200 480 -232 639 -131 1257 300 1356 947 38
245 -13 506 -141 731 -25 44 -45 81 -45 82 0 7 183 70 289 100 426 117 813
153 1241 113z m2496 -684 c67 -20 117 -64 151 -133 l28 -57 0 -2305 c0 -2106
-1 -2308 -16 -2341 -23 -51 -75 -107 -123 -132 l-41 -22 -1700 0 -1700 0 -41
22 c-53 28 -107 91 -122 142 -9 28 -12 623 -12 2343 l0 2304 26 52 c31 62 83
108 144 127 69 21 3334 22 3406 0z m333 -1541 c133 -377 189 -749 178 -1182
-8 -305 -38 -522 -112 -792 -30 -110 -119 -367 -131 -379 -2 -2 -4 567 -4
1265 1 1066 3 1264 14 1238 7 -16 32 -84 55 -150z m-4001 -1134 l2 -1090
-1072 2 -1073 3 -3 1080 c-1 594 0 1085 2 1090 2 7 367 9 1072 8 l1069 -3 3
-1090z m-3898 580 c0 -5 -4 -10 -10 -10 -5 0 -10 5 -10 10 0 6 5 10 10 10 6 0
10 -4 10 -10z m-460 -185 c0 -8 -7 -15 -15 -15 -8 0 -15 7 -15 15 0 8 7 15 15
15 8 0 15 -7 15 -15z m520 -790 c0 -8 -7 -15 -15 -15 -8 0 -15 7 -15 15 0 8 7
15 15 15 8 0 15 -7 15 -15z m1783 -840 c-31 -30 -61 -55 -65 -55 -4 0 -8 -4
-8 -10 0 -15 56 -12 72 3 7 8 31 37 53 65 l39 52 88 0 88 0 -60 -57 c-33 -32
-60 -61 -60 -65 0 -20 52 -6 73 19 12 15 38 44 57 65 l35 38 83 0 82 0 -60
-57 c-33 -32 -60 -61 -60 -65 0 -19 52 -6 73 18 12 15 39 44 59 65 l36 39 81
0 81 0 -60 -57 c-33 -32 -60 -61 -60 -65 0 -18 52 -6 70 15 11 13 38 42 59 65
l39 42 89 0 88 0 -30 -19 c-29 -17 -105 -94 -105 -106 0 -3 11 -5 24 -5 22 0
89 59 129 114 10 14 28 16 102 14 64 -2 84 -6 70 -12 -21 -10 -115 -99 -115
-110 0 -3 11 -6 24 -6 24 0 90 58 123 108 14 20 23 22 107 21 74 0 88 -2 72
-12 -26 -17 -116 -102 -116 -110 0 -4 11 -7 25 -7 24 0 89 57 122 107 14 21
22 23 106 23 l91 0 -44 -37 c-103 -89 -110 -101 -48 -89 25 5 44 21 77 66 l45
60 89 0 89 0 -58 -52 c-31 -29 -61 -54 -65 -56 -20 -8 -7 -22 20 -22 33 0 41
6 96 78 l39 52 89 0 89 0 -58 -52 c-31 -29 -61 -54 -65 -56 -20 -8 -7 -22 20
-22 33 0 41 6 96 78 30 40 45 52 66 52 l27 0 7 -132 c4 -73 5 -144 4 -158 l-4
-25 -1067 -3 -1068 -2 0 160 0 160 70 0 70 0 -57 -55z m2047 -420 l0 -55 -71
0 -71 0 42 48 c40 45 41 47 19 50 -17 3 -35 -9 -70 -47 l-47 -51 -77 0 -77 0
42 48 c40 44 41 47 20 50 -17 3 -37 -10 -73 -47 l-50 -51 -74 0 -75 0 42 48
c40 44 41 47 20 50 -16 3 -37 -11 -74 -47 l-52 -51 -72 0 c-74 0 -86 6 -53 27
10 6 29 26 41 42 l21 31 -23 0 c-16 0 -42 -18 -74 -50 l-49 -50 -72 0 c-73 0
-91 10 -54 30 11 5 29 23 41 40 l21 30 -24 0 c-16 0 -41 -17 -73 -50 l-49 -49
-80 0 -80 0 35 32 c19 18 41 40 49 50 12 15 11 17 -13 17 -19 0 -41 -14 -75
-50 l-48 -50 -79 0 -78 0 49 50 49 50 -31 0 c-26 0 -40 -9 -74 -50 l-42 -50
-81 0 -80 0 49 50 49 50 -31 0 c-25 0 -40 -10 -75 -50 l-43 -51 -78 3 -77 3
46 48 46 47 -30 0 c-25 0 -39 -10 -73 -50 l-42 -50 -79 0 -80 0 42 48 c41 45
41 47 19 51 -18 2 -35 -9 -69 -48 -25 -28 -52 -52 -60 -53 -8 -2 464 -5 1050
-8 l1065 -5 3 -92 3 -93 -1071 0 -1070 0 0 158 0 157 1065 -3 1065 -2 0 -55z
m2 -413 c6 -66 56 -183 95 -224 l27 -28 -1127 0 -1127 0 0 158 0 157 1064 -3
1063 -2 5 -58z m3097 -358 c-87 -94 -417 -332 -617 -443 -731 -411 -1632 -527
-2445 -316 -515 133 -962 366 -1359 708 -38 32 -68 62 -68 67 0 6 833 10 2257
10 l2256 0 -24 -26z m-3329 -1653 c14 -9 -50 -99 -242 -344 l-38 -48 -49 46
-50 47 25 37 25 36 -60 28 c-195 92 -458 26 -543 -137 -30 -57 -31 -155 -1
-212 100 -190 428 -243 616 -99 l45 34 48 -55 c38 -45 45 -60 37 -73 -15 -23
-187 -108 -263 -128 -88 -24 -280 -24 -370 0 -166 44 -295 139 -356 262 -33
68 -37 83 -37 159 -1 74 2 90 31 149 62 124 211 232 387 278 61 16 111 21 210
22 135 0 204 -12 313 -55 29 -11 54 -19 56 -17 1 2 24 34 50 71 l47 68 52 -31
c29 -16 59 -34 67 -38z m585 -3 c3 -24 8 -55 11 -70 6 -28 -3 -32 -89 -40 -15
-2 -27 -7 -25 -13 1 -5 45 -47 97 -92 l95 -82 86 79 c123 112 121 110 69 110
-24 0 -54 3 -67 7 -23 5 -23 9 -17 67 4 33 10 65 14 69 4 4 125 5 269 1 l262
-7 0 -74 0 -73 -77 0 -78 0 -159 -153 -159 -152 154 -132 154 -133 80 -1 c114
-1 118 -3 131 -85 7 -38 11 -70 10 -71 -1 -1 -142 -3 -314 -5 l-312 -3 0 73 0
73 68 -7 67 -6 -85 81 c-47 44 -87 80 -90 81 -3 0 -45 -38 -95 -84 l-90 -84
73 6 72 5 0 -70 0 -70 -227 -6 c-294 -9 -403 -9 -403 1 0 36 24 138 33 144 7
4 49 8 94 8 l82 0 68 59 c38 33 108 97 156 143 l89 83 -164 147 -163 147 -82
1 -83 0 0 79 0 80 33 4 c17 2 138 5 269 5 l236 2 7 -42z m1615 27 c235 -35
428 -152 501 -302 66 -132 33 -283 -85 -390 -148 -134 -331 -195 -581 -195
-209 0 -359 40 -501 135 -143 95 -196 184 -195 326 1 198 226 380 526 427 110
17 222 17 335 -1z m1530 -60 l0 -75 -70 0 c-38 0 -70 -1 -70 -2 0 -2 53 -129
118 -283 l118 -280 77 -3 77 -3 0 -36 0 -36 77 7 c42 3 100 6 130 6 l53 0 0
223 c0 122 3 293 7 380 l6 157 149 0 c81 0 149 -1 150 -2 1 -2 4 -86 7 -188
l6 -185 150 -6 c189 -9 280 -34 348 -98 41 -37 59 -78 60 -130 1 -108 -102
-203 -268 -246 -99 -25 -256 -35 -572 -35 l-303 0 0 -160 c0 -138 -2 -160 -16
-160 -8 0 -46 5 -85 11 -52 9 -69 16 -69 28 0 9 -14 80 -31 157 l-32 141 -75
7 c-166 14 -721 -6 -733 -26 -4 -6 -21 -69 -39 -142 -18 -72 -33 -132 -35
-134 -1 -1 -32 7 -68 18 l-67 21 0 249 0 249 102 3 101 3 92 245 92 245 -41 3
c-23 1 -56 5 -73 7 l-33 6 0 64 0 64 138 4 c75 1 246 4 380 5 l242 2 0 -75z
m-6795 55 c229 -7 281 -11 344 -29 127 -37 204 -89 242 -162 57 -112 -13 -234
-159 -279 -74 -23 -205 -40 -308 -40 l-71 0 -6 -82 c-4 -46 -7 -98 -7 -115 l0
-33 68 0 c37 0 91 -3 120 -6 l52 -7 0 -70 0 -70 -272 6 c-149 4 -322 7 -385 7
l-114 0 3 83 3 82 119 3 119 3 -7 102 c-3 56 -8 174 -11 262 -3 88 -8 175 -11
193 l-5 32 -117 0 c-64 0 -134 3 -154 6 l-38 7 0 58 0 59 163 -1 c89 0 284 -4
432 -9z m1501 -27 c-3 -21 -6 -47 -6 -57 0 -17 -6 -18 -55 -13 -30 3 -54 3
-52 -1 17 -30 321 -548 324 -552 2 -2 33 -7 69 -11 36 -3 66 -8 68 -10 2 -2 6
-34 10 -71 l7 -68 -254 0 -254 0 -7 38 c-3 20 -6 56 -6 80 l0 42 43 0 c23 0
52 3 64 6 22 6 22 6 -10 70 l-31 64 -136 0 -136 0 -43 -111 c-49 -127 -50
-124 46 -135 l63 -6 0 -43 c0 -80 21 -75 -291 -75 l-279 0 0 24 c0 13 -3 44
-6 70 l-7 46 84 -6 84 -6 137 314 137 313 -65 3 -64 3 0 64 0 65 286 0 287 0
-7 -37z m7518 -40 c-3 -38 -7 -73 -9 -79 -2 -7 -45 -13 -110 -16 -58 -3 -108
-8 -111 -11 -3 -2 -9 -105 -14 -228 -6 -123 -11 -254 -13 -291 l-3 -68 47 0
c25 0 74 -3 108 -6 l61 -7 0 -68 0 -69 -113 0 c-63 0 -216 3 -340 7 l-227 6 0
69 0 68 110 0 110 0 0 311 0 311 -22 -5 c-13 -3 -61 -7 -108 -8 l-85 -2 0 69
0 69 245 5 c135 3 298 7 363 8 l118 2 -7 -67z"/>
<path d="M1763 15595 l-92 -225 27 0 c15 -1 92 -7 172 -14 80 -8 147 -12 149
-10 4 3 -144 436 -158 461 -4 7 -48 -88 -98 -212z"/>
<path d="M3010 15884 c-331 -88 -389 -370 -106 -516 65 -33 127 -48 221 -55
123 -8 218 10 315 58 122 61 180 140 180 245 0 115 -137 237 -308 273 -73 15
-236 13 -302 -5z"/>
<path d="M5720 15884 c-331 -88 -389 -370 -106 -516 65 -33 127 -48 221 -55
123 -8 218 10 315 58 122 61 180 140 180 245 0 115 -137 237 -308 273 -73 15
-236 13 -302 -5z"/>
<path d="M7103 15595 l-92 -225 27 0 c15 -1 92 -7 172 -14 80 -8 147 -12 149
-10 4 3 -144 436 -158 461 -4 7 -48 -88 -98 -212z"/>
<path d="M8420 15476 c0 -35 3 -84 6 -110 l7 -46 81 0 c122 1 196 42 196 111
0 67 -83 109 -217 109 l-73 0 0 -64z"/>
<path d="M5034 13260 c-55 -22 -54 -10 -54 -593 l0 -539 29 -29 29 -29 1472 0
c1099 0 1477 3 1493 12 47 25 46 13 47 589 l0 546 -26 24 -26 24 -1471 2
c-817 1 -1482 -2 -1493 -7z m2856 -585 l0 -435 -1359 0 c-748 0 -1366 -3
-1375 -6 -14 -6 -16 37 -16 435 l0 441 1375 0 1375 0 0 -435z"/>
<path d="M6680 11833 c-8 -3 -25 -15 -37 -26 -22 -19 -23 -28 -23 -169 0 -145
1 -150 25 -173 l24 -25 254 0 c327 0 311 -12 305 219 -4 188 15 175 -291 178
-133 1 -249 -1 -257 -4z"/>
<path d="M7493 11830 c-48 -20 -55 -47 -51 -205 4 -200 -21 -185 305 -185
l254 0 24 25 c24 23 25 28 25 173 0 210 20 196 -293 199 -133 1 -252 -2 -264
-7z"/>
<path d="M5009 11221 c-23 -18 -24 -26 -27 -169 -3 -147 -3 -150 21 -178 l25
-29 255 0 255 0 26 24 c26 24 26 26 26 173 0 145 -1 150 -25 173 l-24 25 -254
0 c-236 0 -257 -1 -278 -19z"/>
<path d="M5825 11215 c-24 -23 -25 -28 -25 -173 0 -147 0 -149 26 -173 l26
-24 255 0 255 0 24 28 c23 27 24 34 24 173 0 141 -1 146 -25 169 l-24 25 -256
0 -256 0 -24 -25z"/>
<path d="M6645 11215 c-24 -23 -25 -28 -25 -173 0 -147 0 -149 26 -173 l26
-24 254 0 c319 0 298 -13 302 176 4 148 1 170 -30 199 -21 19 -34 20 -275 20
l-254 0 -24 -25z"/>
<path d="M7469 11221 c-23 -18 -24 -26 -27 -169 -3 -147 -3 -150 21 -178 l25
-29 255 0 255 0 26 24 c26 24 26 26 26 173 0 145 -1 150 -25 173 l-24 25 -254
0 c-236 0 -257 -1 -278 -19z"/>
<path d="M2493 8854 l-51 -54 31 1 c25 1 43 13 81 55 l49 54 -29 -1 c-22 0
-42 -14 -81 -55z"/>
<path d="M2703 8854 c-50 -53 -51 -54 -24 -54 20 0 43 15 83 55 l55 55 -31 -1
c-24 0 -42 -12 -83 -55z"/>
<path d="M2913 8854 c-50 -52 -50 -54 -24 -54 18 0 44 16 85 55 l58 55 -34 -1
c-27 0 -43 -11 -85 -55z"/>
<path d="M3126 8855 c-54 -53 -55 -55 -28 -55 19 0 45 16 87 55 l59 55 -31 0
c-24 0 -43 -12 -87 -55z"/>
<path d="M3337 8855 l-58 -55 31 0 c24 0 44 13 88 55 57 55 57 55 27 55 -22
-1 -45 -15 -88 -55z"/>
<path d="M3547 8855 l-58 -55 33 0 c27 0 44 10 88 55 l54 55 -29 0 c-22 -1
-45 -15 -88 -55z"/>
<path d="M3794 8888 c-11 -13 -37 -38 -59 -55 l-40 -33 36 0 c29 0 44 9 89 55
l54 55 -30 0 c-19 0 -38 -8 -50 -22z"/>
<path d="M3995 8877 c-16 -18 -43 -43 -60 -55 l-30 -21 40 0 c35 1 46 8 89 55
l49 54 -29 0 c-20 0 -38 -10 -59 -33z"/>
<path d="M4213 8884 c-9 -15 -35 -40 -57 -55 l-39 -29 39 1 c34 1 45 8 88 55
l49 54 -31 0 c-23 0 -36 -7 -49 -26z"/>
<path d="M4393 8854 l-51 -54 31 1 c25 1 43 13 81 55 l49 54 -29 -1 c-22 0
-42 -14 -81 -55z"/>
<path d="M4422 8358 c-15 -15 -16 -54 -2 -63 14 -9 976 -9 989 0 15 8 14 48
-1 63 -17 17 -969 17 -986 0z"/>
<path d="M5496 8348 c-18 -25 -6 -57 22 -59 57 -4 199 5 210 13 16 14 15 33
-4 52 -12 12 -38 16 -114 16 -90 0 -100 -2 -114 -22z"/>
<path d="M5256 8154 c-9 -8 -16 -22 -16 -29 0 -36 29 -45 144 -45 97 0 115 3
129 18 22 24 21 35 -1 55 -26 24 -233 25 -256 1z"/>
<path d="M5667 8152 c-22 -24 -21 -35 1 -55 17 -15 68 -17 525 -17 446 0 507
2 521 16 9 8 16 22 16 29 0 7 -7 21 -16 29 -14 14 -75 16 -523 16 -479 0 -509
-1 -524 -18z"/>
<path d="M6186 6714 c-115 -28 -233 -109 -270 -188 -22 -47 -21 -138 3 -185
60 -116 239 -201 426 -201 90 0 208 26 275 60 57 29 127 96 152 143 24 48 26
128 5 179 -34 82 -152 163 -279 193 -78 18 -234 18 -312 -1z"/>
<path d="M7573 6425 l-92 -225 27 0 c15 -1 92 -7 172 -14 80 -8 147 -12 149
-10 4 3 -144 436 -158 461 -4 7 -48 -88 -98 -212z"/>
<path d="M8890 6286 c0 -35 3 -85 7 -111 l6 -48 91 5 c57 3 103 11 123 21 68
35 83 99 35 147 -36 36 -87 50 -184 50 l-78 0 0 -64z"/>
<path d="M1328 6718 c-12 -10 -17 -38 -21 -111 l-5 -97 25 -6 c31 -8 132 2
185 18 46 14 88 59 88 95 0 40 -56 88 -118 102 -70 15 -134 14 -154 -1z"/>
<path d="M2494 6645 c-4 -11 -19 -51 -35 -90 l-27 -70 57 -8 c31 -4 68 -6 82
-5 l27 3 -48 95 c-39 77 -50 91 -56 75z"/>
</g>
</svg>
